<?xml version="1.0" encoding="UTF-8"?>
<svg width="70px" height="35px" viewBox="0 0 70 35" version="1.1" xmlns="http://www.w3.org/2000/svg" xmlns:xlink="http://www.w3.org/1999/xlink">
    <!-- Generator: Sketch 64 (93537) - https://sketch.com -->
    <title>Slice 1</title>
    <desc>Created with Sketch.</desc>
    <g id="Page-1" stroke="none" stroke-width="1" fill="none" fill-rule="evenodd">
        <g id="openpay-logo" fill-rule="nonzero">
            <path d="M4,0 L66,0 C68.2,0 70,1.8 70,4 L70,31 C70,33.2 68.2,35 66,35 L4,35 C1.8,35 0,33.2 0,31 L0,4 C0,1.8 1.8,0 4,0 Z" id="Rectangle_151" fill="#FFB81C"></path>
            <g id="OP_logo-Iron_hyde_-_No_Tag" transform="translate(3.000000, 11.000000)" fill="#333332">
                <path d="M37,13.5 L37,11.3 L39.2,11.3 L39.2,13.5 L37,13.5 Z M9.3,13.5 L9.3,11.3 L11.5,11.3 L11.5,13.5 L9.3,13.5 Z M58.8,13.5 L58.8,11.3 L61,11.3 L61,13.5 L58.8,13.5 Z M58.8,10.5 L58.8,9.8 C57,9.3 55.8,7.6 55.8,5.8 L55.8,1.4 L58,1.4 L58,5.8 C58,6.8 58.8,7.7 59.8,7.7 C60.8,7.7 61.7,6.9 61.7,5.9 L61.7,5.8 L61.7,1.4 L64,1.4 L64,5.8 C64,7.6 62.8,9.3 61,9.8 L61,10.6 L58.8,10.6 L58.8,10.5 Z M37,10.5 L37,5.5 C36.9,3 38.9,1 41.3,1 L41.3,1 C43.1,1 44.8,2.2 45.4,3.9 C46,5.6 45.5,7.6 44.1,8.8 C42.7,10 40.7,10.2 39.1,9.3 L39.1,10.5 L37,10.5 Z M39.1,5.4 C39.1,6.6 40.1,7.6 41.3,7.6 C42.5,7.6 43.5,6.6 43.5,5.4 C43.5,4.2 42.5,3.2 41.3,3.2 L41.3,3.2 L41.3,3.2 C40.1,3.2 39.1,4.2 39.1,5.4 L39.1,5.4 Z M9.3,10.5 L9.3,5.5 C9.3,3 11.2,1 13.6,1 L13.6,1 C15.4,1 17.1,2.2 17.7,3.9 C18.3,5.6 17.8,7.6 16.4,8.8 C15,10 13,10.2 11.4,9.3 L11.4,10.5 L9.3,10.5 Z M11.5,5.4 C11.5,6.6 12.5,7.6 13.7,7.6 C14.9,7.6 15.9,6.6 15.9,5.4 C15.9,4.2 14.9,3.2 13.7,3.2 L13.7,3.2 L13.7,3.2 C12.4,3.2 11.5,4.2 11.5,5.4 L11.5,5.4 Z M0,5.5 C0,3 1.9,1 4.4,1 C6.8,1 8.8,3 8.8,5.5 C8.8,7.9 6.9,9.9 4.4,10 C1.9,9.9 0,7.9 0,5.5 Z M2.2,5.5 C2.2,6.7 3.2,7.7 4.4,7.7 L4.4,7.7 C5.6,7.7 6.6,6.7 6.6,5.5 C6.6,4.3 5.6,3.3 4.4,3.3 C3.1,3.3 2.2,4.2 2.2,5.5 L2.2,5.5 Z M47.6,8.6 C46.2,7.2 45.9,5 46.9,3.3 C47.8,1.6 49.8,0.7 51.8,1.2 C53.7,1.7 55,3.4 55,5.4 L55,9.7 L52.8,9.7 L52.8,9.3 C51.1,10.3 49,10 47.6,8.6 L47.6,8.6 Z M49.1,3.9 C48.2,4.8 48.3,6.2 49.1,7.1 C49.5,7.5 50,7.7 50.6,7.7 L50.6,7.7 C51.2,7.7 51.7,7.5 52.1,7.1 C52.5,6.7 52.7,6.1 52.7,5.5 L52.7,5.4 C52.7,4.2 51.7,3.3 50.5,3.2 L50.5,3.2 C50.1,3.2 49.5,3.5 49.1,3.9 Z M22.9,9.9 C20.6,9.9 18.7,8.1 18.6,5.8 C18.4,3.5 20,1.4 22.2,1 C24.5,0.6 26.6,2.1 27.1,4.3 L27.1,4.3 C27.3,5 27.2,5.8 27.1,6.6 L21,6.6 L21,6.7 C21.6,7.7 23,8 24,7.4 L25.6,9 C24.8,9.6 23.9,9.9 22.9,9.9 L22.9,9.9 Z M21,4.4 L21,4.4 L24.9,4.5 L24.9,4.4 C24.3,3.3 23,2.9 21.9,3.5 C21.5,3.6 21.2,4 21,4.4 L21,4.4 Z M34,9.7 L34,5.2 C34,4.2 33.2,3.3 32.2,3.3 C31.2,3.3 30.3,4.1 30.3,5.1 L30.3,5.2 L30.3,9.7 L28,9.7 L28,5.2 C28,2.9 29.8,1 32.1,1 L32.1,1 C34.4,1 36.2,2.9 36.2,5.2 L36.2,9.7 L34,9.7 Z" id="Union_14"></path>
            </g>
        </g>
    </g>
</svg>